<?xml version="1.0" encoding="UTF-8"?><!DOCTYPE svg PUBLIC "-//W3C//DTD SVG 1.1//EN" "http://www.w3.org/Graphics/SVG/1.1/DTD/svg11.dtd"><svg xmlns="http://www.w3.org/2000/svg" xmlns:xlink="http://www.w3.org/1999/xlink"><defs/><symbol id="chevronleft" viewBox="0 0 32 32"><path d="M10 16L20 6l1.4 1.4l-8.6 8.6l8.6 8.6L20 26z"/></symbol><symbol id="chevronright" viewBox="0 0 32 32"><path d="M22 16L12 26l-1.4-1.4l8.6-8.6l-8.6-8.6L12 6z"/></symbol><symbol id="download" viewBox="0 0 32 32"><path d="M26 24v4H6v-4H4v4a2 2 0 0 0 2 2h20a2 2 0 0 0 2-2v-4zm0-10l-1.41-1.41L17 20.17V2h-2v18.17l-7.59-7.58L6 14l10 10l10-10z"/></symbol><symbol id="facebook" viewBox="0 0 24 24"><path d="M15.402 21v-6.966h2.333l.349-2.708h-2.682V9.598c0-.784.218-1.319 1.342-1.319h1.434V5.857a19.19 19.19 0 0 0-2.09-.107c-2.067 0-3.482 1.262-3.482 3.58v1.996h-2.338v2.708h2.338V21H4a1 1 0 0 1-1-1V4a1 1 0 0 1 1-1h16a1 1 0 0 1 1 1v16a1 1 0 0 1-1 1h-4.598Z"/></symbol><symbol id="search" viewBox="0 0 32 32"><path d="m29 27.586l-7.552-7.552a11.018 11.018 0 1 0-1.414 1.414L27.586 29ZM4 13a9 9 0 1 1 9 9a9.01 9.01 0 0 1-9-9Z"/></symbol><symbol id="twitter" viewBox="0 0 24 24"><path d="M8 2H1l8.26 11.014L1.45 22H4.1l6.388-7.349L16 22h7l-8.608-11.478L21.8 2h-2.65l-5.986 6.886L8 2Zm9 18L5 4h2l12 16h-2Z"/></symbol><symbol id="youtube" viewBox="0 0 24 24"><path d="M12.244 4c.534.003 1.87.016 3.29.073l.504.022c1.429.067 2.857.183 3.566.38c.945.266 1.687 1.04 1.938 2.022c.4 1.56.45 4.602.456 5.339l.001.152v.174c-.007.737-.057 3.78-.457 5.339c-.254.985-.997 1.76-1.938 2.022c-.709.197-2.137.313-3.566.38l-.504.023c-1.42.056-2.756.07-3.29.072l-.235.001h-.255c-1.13-.007-5.856-.058-7.36-.476c-.944-.266-1.687-1.04-1.938-2.022c-.4-1.56-.45-4.602-.456-5.339v-.326c.006-.737.056-3.78.456-5.339c.254-.985.997-1.76 1.939-2.021c1.503-.419 6.23-.47 7.36-.476h.489ZM9.999 8.5v7l6-3.5l-6-3.5Z"/></symbol></svg>