# This file uses centimeters as units for non-parametric coordinates.

mtllib Sandsack_low.mtl
g default
v -2.983954 -0.000000 1.398445
v 2.766330 -0.000000 1.458756
v -2.066088 1.251629 0.952003
v 1.848463 1.251629 0.952003
v -2.066088 1.251629 -0.952003
v 1.848463 1.251629 -0.952003
v -2.983954 -0.000000 -1.398445
v 2.766330 -0.000000 -1.458756
v -3.311431 0.593593 1.557728
v 3.226843 0.866699 1.557728
v -3.311431 0.593593 -1.557728
v 3.226843 0.866699 -1.557728
v -3.311431 0.482075 1.557728
v 3.311431 0.772989 1.557728
v -3.311431 0.482075 -1.557728
v 3.311431 0.772989 -1.557728
v 1.861976 -0.000000 1.635480
v 1.547219 1.251629 1.113366
v 1.547219 1.251629 -1.113366
v 1.861976 -0.000000 -1.635480
v 1.913692 0.593593 1.821760
v 1.913692 0.593593 -1.821760
v 1.913692 0.482075 1.821760
v 1.913692 0.482075 -1.821760
v -1.969647 -0.000000 1.635480
v -1.672451 1.251629 1.113366
v -1.672451 1.251629 -1.113366
v -1.969647 -0.000000 -1.635480
v -2.018478 0.593593 1.821760
v -2.018478 0.593593 -1.821760
v -2.018478 0.482075 1.821760
v -2.018478 0.482075 -1.821760
v -3.181271 0.644601 -1.494419
v 2.963646 0.693752 -1.494419
v -3.181271 0.644601 1.494419
v 2.963646 0.693752 1.494419
v 1.861976 0.644601 -1.747721
v 1.861976 0.644601 1.747721
v -1.969647 0.644601 -1.747721
v -1.969647 0.644601 1.747721
v -3.193523 0.419696 1.500378
v 3.061422 0.419696 1.565085
v -3.193523 0.419696 -1.500378
v 3.061422 0.419696 -1.565085
v 1.861976 0.419696 1.754690
v 1.861976 0.419696 -1.754690
v -1.969647 0.419696 1.754690
v -1.969647 0.419696 -1.754690
v -2.803997 1.102308 -1.310916
v 2.586372 1.102308 -1.310916
v 1.861976 1.102308 -1.533114
v -1.969647 1.102308 -1.533114
v -2.803997 1.102308 1.310916
v 2.586373 1.102308 1.310916
v 1.861976 1.102308 1.533114
v -1.969647 1.102308 1.533114
v -3.059237 0.884597 1.398200
v 2.863201 0.884597 1.408701
v 1.913456 0.884597 1.635193
v -2.018806 0.884597 1.635193
v -3.059237 0.884597 -1.398200
v 2.863201 0.884597 -1.408701
v 1.913456 0.884597 -1.635193
v -2.018806 0.884597 -1.635193
v 3.006155 0.692923 1.504644
v 3.015588 0.673332 1.600204
v 3.015588 0.673332 -1.600204
v 3.113739 0.469479 -1.562758
v 3.067474 0.565569 1.589772
v 3.067474 0.565569 -1.589772
v 3.006155 0.692923 -1.504644
v 3.113739 0.469479 1.562758
vt 0.838282 0.573737
vt 0.732975 0.544119
vt 0.291322 0.157748
vt 0.333190 0.139103
vt 0.335873 0.396402
vt 0.294172 0.377756
vt 0.735126 0.529224
vt 0.885141 0.561000
vt 0.838283 0.923210
vt 0.732975 0.952828
vt 0.235746 0.566201
vt 0.302522 0.444904
vt 0.235746 0.930746
vt 0.215746 0.419229
vt 0.128830 0.087756
vt 0.920460 0.072469
vt 0.287758 0.031248
vt 0.294026 0.039803
vt 0.146123 0.095072
vt 0.914691 0.463033
vt 0.182712 0.944032
vt 0.898854 0.462883
vt 0.182711 0.552915
vt 0.885138 0.935947
vt 0.901228 0.943113
vt 0.904649 0.072621
vt 0.740652 0.976104
vt 0.735126 0.967723
vt 0.137011 0.447748
vt 0.293518 0.490398
vt 0.322584 0.520843
vt 0.292513 0.511329
vt 0.126264 0.465646
vt 0.328379 0.529224
vt 0.174372 0.553205
vt 0.175802 0.539056
vt 0.330024 0.544119
vt 0.210441 0.116276
vt 0.734624 0.068479
vt 0.330024 0.952828
vt 0.865431 0.441614
vt 0.871174 0.093890
vt 0.328379 0.967723
vt 0.740651 0.520843
vt 0.153647 0.440432
vt 0.117741 0.069859
vt 0.286463 0.010316
vt 0.688509 0.396402
vt 0.690660 0.139102
vt 0.722945 0.157748
vt 0.720742 0.377756
vt 0.732424 0.490398
vt 0.726253 0.481843
vt 0.860272 0.440432
vt 0.901226 0.553834
vt 0.174371 0.943741
vt 0.322583 0.976104
vt 0.175803 0.957891
vt 0.129364 0.553834
vt 0.129364 0.943113
vt 0.903050 0.069859
vt 0.897192 0.465646
vt 0.723610 0.444904
vt 0.800386 0.419229
vt 0.866942 0.452656
vt 0.727219 0.090601
vt 0.804504 0.116276
vt 0.733131 0.511329
vt 0.874082 0.469716
vt 0.737512 0.031248
vt 0.738506 0.010316
vt 0.881884 0.065788
vt 0.873636 0.082848
vt 0.299439 0.481843
vt 0.298289 0.090601
vt 0.290970 0.068479
vt 0.174634 0.106190
vt 0.865985 0.095072
vt 0.837831 0.430528
vt 0.842829 0.104976
vt 0.181035 0.429314
vt 0.730399 0.464443
vt 0.730987 0.039803
vt 0.295855 0.464443
vn -0.062805 -0.805968 0.588618
vn -0.085680 -0.545522 0.833705
vn -0.412299 -0.792846 0.448781
vn -0.461791 -0.726431 0.508966
vn -0.093484 0.991696 0.088320
vn -0.020552 0.988361 0.150731
vn -0.093484 0.991696 -0.088320
vn -0.020552 0.988361 -0.150731
vn -0.076788 0.770384 -0.632939
vn -0.297652 0.899585 -0.319609
vn -0.412299 -0.792846 -0.448782
vn -0.062805 -0.805968 -0.588618
vn 0.364345 -0.821904 0.437865
vn 0.364345 -0.821904 -0.437865
vn 0.512695 -0.596286 0.617728
vn 0.512695 -0.596286 -0.617728
vn -0.461791 -0.726431 -0.508966
vn -0.502380 0.659390 0.559303
vn -0.086018 0.483141 0.871307
vn -0.411570 0.795395 0.444924
vn -0.076906 0.659790 0.747505
vn -0.502380 0.659389 -0.559303
vn -0.086018 0.483140 -0.871307
vn -0.537415 -0.595165 -0.597465
vn -0.089217 -0.419038 -0.903575
vn -0.151105 0.832921 0.532363
vn -0.151104 0.832920 -0.532364
vn -0.292673 0.943228 0.157044
vn -0.292673 0.943228 -0.157044
vn -0.411570 0.795395 -0.444924
vn -0.537415 -0.595164 0.597465
vn -0.089217 -0.419037 0.903575
vn 0.633897 0.004639 0.773403
vn 0.633897 0.004639 -0.773404
vn -0.085680 -0.545522 -0.833705
vn 0.098101 -0.311127 0.945292
vn 0.086003 -0.448639 0.889565
vn 0.191470 -0.137741 0.971785
vn 0.554985 -0.542631 0.630510
vn 0.023177 0.988878 -0.146910
vn 0.023177 0.988878 0.146910
vn 0.096954 0.991810 -0.083139
vn 0.096954 0.991810 0.083139
vn 0.063360 0.519848 -0.851906
vn 0.056899 0.693932 -0.717789
vn -0.060359 0.537270 -0.841247
vn 0.281601 0.873913 -0.396204
vn 0.050226 -0.806298 0.589373
vn 0.050226 -0.806298 -0.589374
vn 0.082937 0.778628 0.621980
vn 0.295427 0.905800 0.303724
vn 0.098101 -0.311128 -0.945291
vn 0.191469 -0.137741 -0.971785
vn 0.063360 0.519848 0.851906
vn -0.060359 0.537271 0.841247
vn 0.086003 -0.448639 -0.889566
vn -0.076906 0.659789 -0.747505
vn -0.076787 0.770384 0.632940
vn -0.099034 0.445507 0.889784
vn -0.527716 0.626760 0.573313
vn 0.281601 0.873913 0.396204
vn 0.520586 0.647458 0.556586
vn 0.520586 0.647458 -0.556586
vn -0.527716 0.626760 -0.573313
vn 0.102972 0.456740 -0.883621
vn 0.056899 0.693932 0.717789
vn -0.099034 0.445506 -0.889784
vn 0.554985 -0.542631 -0.630510
vn 0.102972 0.456739 0.883621
vn -0.297652 0.899585 0.319609
vn 0.295427 0.905800 -0.303724
vn 0.082937 0.778628 -0.621980
s 1
g pCube1
usemtl pCube1SG
f 25/2/1 47/7/2 1/1/3
f 1/1/3 47/7/2 41/8/4
f 3/3/5 26/4/6 5/6/7
f 5/6/7 26/4/6 27/5/8
f 27/5/8 52/12/9 5/6/7
f 5/6/7 52/12/9 49/14/10
f 7/9/11 28/10/12 1/1/3
f 1/1/3 28/10/12 25/2/1
f 2/11/13 8/13/14 42/23/15
f 42/23/15 8/13/14 44/21/16
f 7/9/11 1/1/3 43/24/17
f 43/24/17 1/1/3 41/8/4
f 9/15/18 29/17/19 35/19/20
f 35/19/20 29/17/19 40/18/21
f 11/29/22 30/30/23 15/33/24
f 15/33/24 30/30/23 32/32/25
f 10/26/26 12/22/27 65/42/28
f 65/42/28 12/22/27 71/41/29
f 11/29/22 9/15/18 33/45/30
f 33/45/30 9/15/18 35/19/20
f 13/46/31 31/47/32 9/15/18
f 9/15/18 31/47/32 29/17/19
f 14/16/33 16/20/34 10/26/26
f 10/26/26 16/20/34 12/22/27
f 15/33/24 13/46/31 11/29/22
f 11/29/22 13/46/31 9/15/18
f 15/25/24 32/27/25 43/24/17
f 43/24/17 32/27/25 48/28/35
f 23/31/36 45/34/37 69/36/38
f 69/36/38 45/34/37 72/35/39
f 45/34/37 42/23/15 72/35/39
f 19/48/40 18/49/41 6/51/42
f 6/51/42 18/49/41 4/50/43
f 22/52/44 37/53/45 67/65/46
f 71/41/29 67/65/46 34/54/47
f 37/53/45 34/54/47 67/65/46
f 17/37/48 20/40/49 2/11/13
f 2/11/13 20/40/49 8/13/14
f 18/49/41 55/66/50 4/50/43
f 4/50/43 55/66/50 54/67/51
f 22/52/44 67/65/46 24/68/52
f 24/68/52 67/65/46 70/69/53
f 21/70/54 23/71/36 66/73/55
f 66/73/55 23/71/36 69/72/38
f 20/40/49 46/43/56 8/13/14
f 8/13/14 46/43/56 44/21/16
f 47/7/2 45/34/37 31/44/32
f 31/44/32 45/34/37 23/31/36
f 27/5/8 26/4/6 19/48/40
f 19/48/40 26/4/6 18/49/41
f 39/74/57 37/53/45 30/30/23
f 30/30/23 37/53/45 22/52/44
f 25/2/1 28/10/12 17/37/48
f 17/37/48 28/10/12 20/40/49
f 26/4/6 56/75/58 18/49/41
f 18/49/41 56/75/58 55/66/50
f 32/32/25 30/30/23 24/68/52
f 24/68/52 30/30/23 22/52/44
f 29/17/19 31/47/32 21/70/54
f 21/70/54 31/47/32 23/71/36
f 28/10/12 48/28/35 20/40/49
f 20/40/49 48/28/35 46/43/56
f 39/74/57 30/30/23 33/45/30
f 33/45/30 30/30/23 11/29/22
f 40/18/21 60/76/59 35/19/20
f 35/19/20 60/76/59 57/77/60
f 36/78/61 34/54/47 58/80/62
f 58/80/62 34/54/47 62/79/63
f 33/45/30 35/19/20 61/81/64
f 61/81/64 35/19/20 57/77/60
f 37/53/45 63/82/65 34/54/47
f 34/54/47 63/82/65 62/79/63
f 21/70/54 66/73/55 38/83/66
f 65/42/28 36/78/61 66/73/55
f 36/78/61 38/83/66 66/73/55
f 39/74/57 64/84/67 37/53/45
f 37/53/45 64/84/67 63/82/65
f 40/18/21 29/17/19 38/83/66
f 38/83/66 29/17/19 21/70/54
f 47/7/2 31/44/32 41/8/4
f 41/8/4 31/44/32 13/55/31
f 42/23/15 44/21/16 72/35/39
f 72/35/39 44/21/16 68/56/68
f 43/24/17 41/8/4 15/25/24
f 15/25/24 41/8/4 13/55/31
f 43/24/17 48/28/35 7/9/11
f 7/9/11 48/28/35 28/10/12
f 42/23/15 45/34/37 2/11/13
f 2/11/13 45/34/37 17/37/48
f 24/57/52 70/58/53 46/43/56
f 70/58/53 68/56/68 46/43/56
f 44/21/16 46/43/56 68/56/68
f 45/34/37 47/7/2 17/37/48
f 17/37/48 47/7/2 25/2/1
f 48/28/35 32/27/25 46/43/56
f 46/43/56 32/27/25 24/57/52
f 52/12/9 64/84/67 49/14/10
f 49/14/10 64/84/67 61/81/64
f 55/66/50 59/39/69 54/67/51
f 54/67/51 59/39/69 58/80/62
f 56/75/58 60/76/59 55/66/50
f 55/66/50 60/76/59 59/39/69
f 53/38/70 56/75/58 3/3/5
f 3/3/5 56/75/58 26/4/6
f 54/67/51 50/64/71 4/50/43
f 4/50/43 50/64/71 6/51/42
f 49/14/10 53/38/70 5/6/7
f 5/6/7 53/38/70 3/3/5
f 50/64/71 51/63/72 6/51/42
f 6/51/42 51/63/72 19/48/40
f 51/63/72 52/12/9 19/48/40
f 19/48/40 52/12/9 27/5/8
f 57/77/60 60/76/59 53/38/70
f 53/38/70 60/76/59 56/75/58
f 58/80/62 62/79/63 54/67/51
f 54/67/51 62/79/63 50/64/71
f 61/81/64 57/77/60 49/14/10
f 49/14/10 57/77/60 53/38/70
f 62/79/63 63/82/65 50/64/71
f 50/64/71 63/82/65 51/63/72
f 63/82/65 64/84/67 51/63/72
f 51/63/72 64/84/67 52/12/9
f 61/81/64 64/84/67 33/45/30
f 33/45/30 64/84/67 39/74/57
f 58/80/62 59/39/69 36/78/61
f 36/78/61 59/39/69 38/83/66
f 59/39/69 60/76/59 38/83/66
f 38/83/66 60/76/59 40/18/21
f 65/42/28 71/41/29 36/78/61
f 36/78/61 71/41/29 34/54/47
f 69/36/38 72/35/39 14/59/33
f 67/65/46 71/41/29 12/22/27
f 70/69/53 67/65/46 16/62/34
f 16/62/34 67/65/46 12/22/27
f 69/72/38 14/61/33 66/73/55
f 66/73/55 14/61/33 10/26/26
f 65/42/28 66/73/55 10/26/26
f 72/35/39 68/56/68 14/59/33
f 14/59/33 68/56/68 16/60/34
f 68/56/68 70/58/53 16/60/34
